# xmcd
#
# Track frame offsets: 
#        165
#        25859
#        54269
#        71444
#        96676
#        122918
#        146386
#        180792
#        204657
#        234819
#        263162
#        289316
#
# Disc length: 4430 seconds
#
# Revision: 5
# Processed by: cddbd v1.5.2PL0 Copyright (c) Steve Scherf et al.
# Submitted via: ExactAudioCopyFreeDBPlugin 1.0
#
DISCID=a7114c0c
DTITLE=Various Artist - The Next Step
DYEAR=1997
DGENRE=Electronica
TTITLE0=Endemic Void - Serious Intent
TTITLE1=Kosma - Aeroboot
TTITLE2=Mr. Electric Triangle - A'Luomo
TTITLE3=Jimpster - Mind Painting
TTITLE4=Cujo - Traffic
TTITLE5=Spaceways - At Home with the Shake
TTITLE6=Taran - Lines
TTITLE7=The Chris Bangs Project - Future Cliche
TTITLE8=Red Snapper - Crusoe Takes a Trip
TTITLE9=Izit - Blakey
TTITLE10=Four Ears - Blue Jungle
TTITLE11=James Hardway - Monique
EXTD=YEAR: 1997 ID3G: 18
EXTT0=
EXTT1=
EXTT2=
EXTT3=
EXTT4=
EXTT5=
EXTT6=
EXTT7=
EXTT8=
EXTT9=
EXTT10=
EXTT11=
PLAYORDER=
